<svg xmlns="http://www.w3.org/2000/svg" xmlns:xlink="http://www.w3.org/1999/xlink" width="333" height="136" viewBox="0 0 333 136">
  <defs>
    <clipPath id="clip-logo">
      <rect width="333" height="136"/>
    </clipPath>
  </defs>
  <g id="logo" clip-path="url(#clip-logo)">
    <g id="Group_4" data-name="Group 4" transform="translate(-0.307 -2.407)">
      <g id="Group_1" data-name="Group 1" transform="translate(47.307 -545.5)">
        <path id="Path_1" data-name="Path 1" d="M22.51,32.673h1.681v9.535A6.294,6.294,0,0,1,22.233,47a7.084,7.084,0,0,1-5.108,1.852A7.1,7.1,0,0,1,12.038,47,6.329,6.329,0,0,1,10.1,42.209V32.673h1.7v9.535a5.042,5.042,0,0,0,1.447,3.725,5.371,5.371,0,0,0,3.874,1.4,5.4,5.4,0,0,0,3.895-1.4,4.922,4.922,0,0,0,1.49-3.725Zm20.007,0-6.449,7.747L42.9,48.636H40.792L34.812,41.57l-5.959,7.066H26.745l6.832-8.216-6.449-7.747h2.15l5.534,6.577,5.555-6.577Zm8.961-.255L45.092,50.19H43.581l6.406-17.772Zm14.43.255h1.681v9.535A6.294,6.294,0,0,1,65.631,47a7.084,7.084,0,0,1-5.108,1.852A7.1,7.1,0,0,1,55.436,47,6.329,6.329,0,0,1,53.5,42.209V32.673h1.7v9.535a5.042,5.042,0,0,0,1.447,3.725,6.073,6.073,0,0,0,7.769,0,4.922,4.922,0,0,0,1.49-3.725Zm7.556,0V48.636h-1.7V32.673Zm17.325,1.49h-4.81V47.125h4.81A8.4,8.4,0,0,0,96.3,45.359a5.7,5.7,0,0,0,2.171-4.682,5.8,5.8,0,0,0-2.171-4.7A8.217,8.217,0,0,0,90.788,34.163ZM84.275,48.636V32.673H90.81a10.183,10.183,0,0,1,6.747,2.235,7.521,7.521,0,0,1,0,11.515,10.3,10.3,0,0,1-6.747,2.214Zm31.1-15.963v1.49h-9.982v5.406h8.79v1.469h-8.79v6.108H115.5v1.49H103.686V32.673Zm8.258-.213a7.866,7.866,0,0,1,6.236,2.6l-1.043,1.149a6.779,6.779,0,0,0-5.151-2.256,5.231,5.231,0,0,0-2.98.788,2.48,2.48,0,0,0-1.171,2.171,1.721,1.721,0,0,0,.937,1.66,14.885,14.885,0,0,0,3.512,1.022,15.915,15.915,0,0,1,5.151,1.639,3.146,3.146,0,0,1,1.511,2.873,3.939,3.939,0,0,1-1.894,3.533,8.4,8.4,0,0,1-4.661,1.213,10.5,10.5,0,0,1-4.129-.766,7.291,7.291,0,0,1-2.916-2.15l1.043-1.213a7.557,7.557,0,0,0,5.981,2.639,6.611,6.611,0,0,0,3.5-.8,2.577,2.577,0,0,0,1.288-2.331,2.849,2.849,0,0,0-.479-1.437,3.07,3.07,0,0,0-1.458-.841,11.5,11.5,0,0,0-1.511-.447l-2.107-.447a12.167,12.167,0,0,1-4.193-1.4,2.991,2.991,0,0,1-1.32-2.682,3.887,3.887,0,0,1,1.639-3.3A6.958,6.958,0,0,1,123.629,32.461Zm11.706.213V48.636h-1.7V32.673Zm12.153-.213a9.463,9.463,0,0,1,4.938,1.256,7.7,7.7,0,0,1,3.129,3.491l-1.49.724a6.148,6.148,0,0,0-2.5-2.927,7.587,7.587,0,0,0-4.055-1.054,6.982,6.982,0,0,0-4.959,1.894,6.32,6.32,0,0,0-2,4.831,6.406,6.406,0,0,0,1.958,4.81,6.893,6.893,0,0,0,4.9,1.852,6.222,6.222,0,0,0,4.15-1.362,6.347,6.347,0,0,0,2.086-3.81h-5.513v-1.49h7.96v7.96h-1.7V44.209a6.434,6.434,0,0,1-2.565,3.459,7.873,7.873,0,0,1-4.416,1.181,8.7,8.7,0,0,1-6.13-2.3,8.15,8.15,0,0,1,.021-11.749A8.789,8.789,0,0,1,147.489,32.461Zm26.584.213V48.679h-.83L161.834,35.994V48.636h-1.7V32.631h.83l11.408,12.706V32.673Zm16.112,0v1.49H180.2v5.406h8.79v1.469H180.2v6.108h10.11v1.49H178.5V32.673Zm5.023,1.49v6.662H200a4.429,4.429,0,0,0,2.895-.9A2.961,2.961,0,0,0,204,37.5a2.991,2.991,0,0,0-1.107-2.426A4.395,4.395,0,0,0,200,34.163Zm11.28,14.473h-2.022l-4.023-6.343-.447.021h-4.789v6.321h-1.7V32.673H200a6.407,6.407,0,0,1,4.15,1.32,4.281,4.281,0,0,1,1.639,3.512,4.369,4.369,0,0,1-.947,2.82A5.072,5.072,0,0,1,202.231,42Z" transform="translate(10.899 588.31)" fill="#707070"/>
      </g>
      <path id="Path_24" data-name="Path 24" d="M15.155,21.93Q15.155,32.6,4.788,32.6a12.167,12.167,0,0,1-2.01-.2A16.15,16.15,0,0,1,.4,31.8V25.113a7.855,7.855,0,0,0,1.9.946,5.566,5.566,0,0,0,1.733.36,3.506,3.506,0,0,0,2.906-1.2,5.876,5.876,0,0,0,.963-3.71V8.164h7.252Zm25.39-.72q0,5.778-2.638,8.583T29.776,32.6q-5.125,0-7.779-2.805t-2.655-8.449V8.164h7.269V21.612a6.219,6.219,0,0,0,.863,3.559,2.822,2.822,0,0,0,2.47,1.248,2.855,2.855,0,0,0,2.47-1.172,5.9,5.9,0,0,0,.846-3.467V8.164h7.285Zm27.1-1.34a13.251,13.251,0,0,1-1.532,6.456,10.56,10.56,0,0,1-4.38,4.329,13.7,13.7,0,0,1-6.565,1.524H45V8.164h9.948Q67.643,8.164,67.643,19.87Zm-7.687.067a6.912,6.912,0,0,0-.712-3.165,5.149,5.149,0,0,0-2.035-2.177,6.081,6.081,0,0,0-3.115-.77H52.235V26.519h2.027a5.214,5.214,0,0,0,4.145-1.784A7.063,7.063,0,0,0,59.956,19.937ZM83.3,23.84v8.34H76.068V23.94l-7.4-15.777h8.307l2.6,7.553a9.749,9.749,0,0,1,.377,1.34q.109.569.243,1.156h.067a15.228,15.228,0,0,1,.486-2.361L83.3,8.164h7.654Zm40.061.971a6.488,6.488,0,0,1-2.479,5.451q-2.479,1.918-7.084,1.918H102.848V8.164h10.2q9.563,0,9.563,5.812a4.532,4.532,0,0,1-.6,2.3,5.424,5.424,0,0,1-1.834,1.834,7.674,7.674,0,0,1-2.7,1.072v.067a7.625,7.625,0,0,1,3.065,1.013,5.982,5.982,0,0,1,2.093,2.027A4.792,4.792,0,0,1,123.364,24.811Zm-8.441-9.58q0-2.227-3.5-2.227h-1.34v4.539h2.093a2.975,2.975,0,0,0,1.976-.645A2.073,2.073,0,0,0,114.923,15.231Zm.754,9.546a2.184,2.184,0,0,0-.754-1.708,2.889,2.889,0,0,0-1.993-.67h-2.847v4.907h2.412a3.645,3.645,0,0,0,2.328-.678A2.236,2.236,0,0,0,115.677,24.778Zm25.926,7.4-1.055-4.421h-7.168L132.24,32.18h-7.821l8.273-24.017h8.977l7.788,24.017Zm-4.555-18.791h-.167a11.671,11.671,0,0,1-.234,1.323q-.2.921-2.027,7.905h4.589l-1.675-6.532A20.657,20.657,0,0,1,137.047,13.389Zm33.094,18.138a20.3,20.3,0,0,1-6.883,1.072,14.008,14.008,0,0,1-6.615-1.465,10.034,10.034,0,0,1-4.246-4.17,12.891,12.891,0,0,1-1.465-6.239,13.734,13.734,0,0,1,1.641-6.766,11.351,11.351,0,0,1,4.639-4.581,14.314,14.314,0,0,1,6.9-1.616,23.983,23.983,0,0,1,6.029.754V15.2a8.509,8.509,0,0,0-2.395-.938,11.97,11.97,0,0,0-2.814-.335,6.3,6.3,0,0,0-4.648,1.692,6.184,6.184,0,0,0-1.7,4.589,6.076,6.076,0,0,0,1.7,4.547,6.215,6.215,0,0,0,4.547,1.666,11.8,11.8,0,0,0,5.309-1.34Zm18.791.653-1.055-4.421h-7.168L179.57,32.18h-7.821l8.273-24.017H189l7.788,24.017Zm-4.555-18.791h-.167a11.669,11.669,0,0,1-.234,1.323q-.2.921-2.027,7.905h4.589l-1.675-6.532A20.657,20.657,0,0,1,184.377,13.389Z" transform="translate(67.906 39.645)" fill="#9a8194"/>
    </g>
  </g>
</svg>
